# xmcd
#
# Track frame offsets:
#	150
#	12669
#	25695
#	39409
#	58122
#	72239
#	84886
#	94371
#	105712
#	116276
#	130616
#
# Disc length: 1982 seconds
#
# Revision: 1
# Processed by: cddbd v1.5.2PL0 Copyright (c) Steve Scherf et al.
# Submitted via: audiograbber 1.83.01
#
DISCID=8607bc0b
DTITLE=Sharon Leighton Joyner - Against All Odds
DYEAR=2006
DGENRE=Gospel
TTITLE0=(I Just Love) That Country Gospel Music
TTITLE1=You're On the Right Track
TTITLE2=He Made My Joy Complete
TTITLE3=Against All Odds
TTITLE4=No More Excuses
TTITLE5=A Plan for My Life
TTITLE6=The Lord Is My Rock (2 Sam 22)
TTITLE7=Delights, Desires and Dreams (Ps 37)
TTITLE8=Success
TTITLE9=Changed Lives
TTITLE10=Three Plus Two
EXTD=
EXTT0=
EXTT1=
EXTT2=
EXTT3=
EXTT4=
EXTT5=
EXTT6=
EXTT7=
EXTT8=
EXTT9=
EXTT10=
PLAYORDER=
